<?xml version="1.0" encoding="UTF-8" standalone="no"?>
<!DOCTYPE svg PUBLIC "-//W3C//DTD SVG 1.1//EN" "http://www.w3.org/Graphics/SVG/1.1/DTD/svg11.dtd">
<!-- Created with Vectornator (http://vectornator.io/) -->
<svg height="100%" stroke-miterlimit="10" style="fill-rule:nonzero;clip-rule:evenodd;stroke-linecap:round;stroke-linejoin:round;" version="1.1" viewBox="0 0 26 26" width="100%" xml:space="preserve" xmlns="http://www.w3.org/2000/svg" xmlns:xlink="http://www.w3.org/1999/xlink">
<defs/>
<g id="图层-1">
<path d="M11.6142 7.34718C10.4521 3.8607 4.98929 6.03027 4.78545 9.08785C4.60258 11.831 7.18672 12.5757 8.93628 14.0867C9.68951 14.7372 10.6941 15.8957 10.3422 17.0101C9.44371 19.8554 2.33066 19.936 2.33066 16.4076" fill="none" opacity="1" stroke="#323849" stroke-linecap="round" stroke-linejoin="round" stroke-width="2.55621"/>
<path d="M13.1541 18.059C12.7253 18.059 12.7918 17.1781 12.7747 16.9209C12.7068 15.9024 12.6747 14.7906 12.9086 13.7966C13.6122 10.8064 15.5659 8.17597 18.867 8.39604C21.8052 8.59192 21.8807 13.9238 21.8128 16.0282C21.7894 16.7526 21.7798 18.0941 21.478 18.7731C21.4428 18.8524 21.4504 18.8401 21.3888 18.8401" fill="none" opacity="1" stroke="#323849" stroke-linecap="round" stroke-linejoin="round" stroke-width="2.55621"/>
<path d="M14.0244 13.4618C13.8351 13.0832 16.4094 13.4978 16.6131 13.5288C17.9533 13.7327 19.2944 13.9974 20.6523 13.9974" fill="none" opacity="1" stroke="#323849" stroke-linecap="round" stroke-linejoin="round" stroke-width="2.55621"/>
<path d="M19.5076 12.107L19.466 12.0655L19.4038 12.0447L19.3622 12.0239L19.3207 12.0032L19.2792 11.9824L19.2584 12.0239L19.2792 12.0862L19.3207 12.1278L19.3415 12.1693L19.383 12.1901L19.4245 12.2108L19.466 12.2523L19.5076 12.2731L19.5491 12.2939L19.5906 12.3146L19.6322 12.3354L19.6322 12.3354" fill="none" opacity="1" stroke="#6b3d65" stroke-linecap="round" stroke-linejoin="round" stroke-width="0.228215"/>
<path d="M19.5906 12.0862L19.5906 12.0239L19.5906 11.9824L19.6322 11.9616L19.6737 11.9201L19.7152 11.8994L19.7567 11.9201L19.7567 11.9824L19.736 12.0239L19.736 12.0862L19.7152 12.1278L19.6737 12.1693L19.6529 12.2108L19.6529 12.2108" fill="none" opacity="1" stroke="#6b3d65" stroke-linecap="round" stroke-linejoin="round" stroke-width="0.228215"/>
</g>
</svg>
